<?xml version="1.0" encoding="UTF-8" standalone="no"?>
<!DOCTYPE svg PUBLIC "-//W3C//DTD SVG 1.1//EN" "http://www.w3.org/Graphics/SVG/1.1/DTD/svg11.dtd">
<svg width="100%" height="100%" viewBox="0 0 570 720" version="1.1" xmlns="http://www.w3.org/2000/svg" xmlns:xlink="http://www.w3.org/1999/xlink" xml:space="preserve" xmlns:serif="http://www.serif.com/" style="fill-rule:evenodd;clip-rule:evenodd;stroke-linejoin:round;stroke-miterlimit:2;">
    <path d="M158.375,1.656C154.756,1.769 150.858,3.106 146.438,6.594C135.611,2.417 125.11,0.967 115.719,9.469C101.225,7.588 96.508,11.469 92.938,16C89.755,15.934 69.119,12.728 59.656,26.844C35.875,24.03 28.359,40.832 36.875,56.5C32.018,64.019 26.985,71.447 38.344,85.781C34.326,93.765 36.816,102.425 46.281,112.906C43.783,124.129 48.693,132.047 57.5,138.219C55.853,153.576 71.584,162.506 76.281,165.688C78.085,174.636 81.844,183.08 99.813,187.75C102.776,201.086 113.575,203.389 124.031,206.188C89.469,226.277 59.831,252.71 60.031,317.563L54.969,326.594C15.338,350.696 -20.317,428.16 35.438,491.125C39.079,510.833 45.187,524.989 50.625,540.656C58.759,603.787 111.843,633.348 125.844,636.844C146.36,652.472 168.212,667.3 197.781,677.688C225.656,706.437 255.855,717.394 286.219,717.375C286.664,717.375 287.117,717.38 287.563,717.375C317.926,717.394 348.125,706.437 376,677.688C405.569,667.3 427.421,652.472 447.938,636.844C461.939,633.348 515.022,603.787 523.156,540.656C528.594,524.989 534.702,510.833 538.344,491.125C594.098,428.16 558.443,350.696 518.813,326.594L513.75,317.563C513.951,252.71 484.312,226.277 449.75,206.188C460.207,203.389 471.006,201.086 473.969,187.75C491.937,183.08 495.696,174.636 497.5,165.688C502.198,162.506 517.928,153.576 516.281,138.219C525.088,132.047 529.998,124.129 527.5,112.906C536.965,102.425 539.456,93.765 535.438,85.781C546.796,71.447 541.763,64.019 536.906,56.5C545.422,40.832 537.907,24.03 514.125,26.844C504.663,12.728 484.026,15.934 480.844,16C477.273,11.469 472.556,7.588 458.063,9.469C448.671,0.967 438.171,2.417 427.344,6.594C414.485,-3.554 405.971,4.58 396.25,7.656C380.676,2.568 377.117,9.537 369.469,12.375C352.494,8.787 347.333,16.599 339.188,24.844L329.719,24.656C304.108,39.749 291.385,70.482 286.875,86.281C282.363,70.479 269.669,39.747 244.063,24.656L234.594,24.844C226.448,16.599 221.288,8.787 204.313,12.375C196.664,9.537 193.105,2.568 177.531,7.656C171.152,5.638 165.285,1.442 158.375,1.656Z" style="fill:rgb(34,0,74);fill-rule:nonzero;"/>
    <path d="M107.392,68.056C175.34,103.087 214.839,131.425 236.479,155.56C225.397,199.978 167.583,202.005 146.443,200.759C150.772,198.744 154.383,196.331 155.664,192.623C150.359,188.853 131.551,192.226 118.42,184.849C123.464,183.804 125.824,182.786 128.183,179.063C115.777,175.107 102.415,171.697 94.555,165.142C98.797,165.195 102.757,166.091 108.296,162.249C97.184,156.261 85.327,151.516 76.114,142.362C81.86,142.221 88.054,142.305 89.855,140.193C79.684,133.892 71.104,126.885 64.001,119.22C72.041,120.191 75.436,119.355 77.38,117.955C69.692,110.081 59.962,103.432 55.323,93.728C61.293,95.786 66.754,96.573 70.691,93.548C68.078,87.654 56.885,84.178 50.442,70.406C56.726,71.015 63.391,71.777 64.724,70.406C61.802,58.517 56.797,51.836 51.888,44.914C65.338,44.714 85.716,44.966 84.793,43.829L76.476,35.332C89.614,31.795 103.057,35.9 112.816,38.948C117.198,35.49 112.738,31.118 107.392,26.654C118.557,28.144 128.646,30.711 137.765,34.247C142.638,29.848 134.601,25.448 130.714,21.049C147.964,24.322 155.271,28.92 162.534,33.524C167.803,28.473 162.836,24.181 159.28,19.783C172.285,24.601 178.985,30.819 186.037,36.959C188.429,33.732 192.112,31.367 187.665,23.58C196.899,28.903 203.854,35.175 208.998,42.202C214.712,38.564 212.402,33.589 212.433,29.004C222.03,36.811 228.12,45.118 235.575,53.23C237.077,52.137 238.392,48.429 239.553,42.564C262.448,64.775 294.798,120.722 247.869,142.904C207.95,109.957 160.253,86.017 107.392,68.056Z" style="fill:rgb(89,205,144);fill-rule:nonzero;"/>
    <path d="M467.925,68.056C399.977,103.087 360.478,131.425 338.838,155.56C349.92,199.978 407.734,202.005 428.873,200.759C424.545,198.744 420.933,196.331 419.653,192.623C424.957,188.853 443.766,192.226 456.896,184.849C451.852,183.804 449.493,182.786 447.134,179.063C459.539,175.107 472.902,171.697 480.761,165.142C476.52,165.195 472.56,166.091 467.021,162.249C478.133,156.261 489.99,151.516 499.202,142.362C493.457,142.221 487.263,142.305 485.462,140.193C495.632,133.892 504.213,126.885 511.316,119.22C503.276,120.191 499.88,119.355 497.937,117.955C505.625,110.081 515.354,103.432 519.994,93.728C514.024,95.786 508.562,96.573 504.626,93.548C507.238,87.654 518.432,84.178 524.875,70.406C518.591,71.015 511.925,71.777 510.592,70.406C513.515,58.517 518.52,51.836 523.429,44.914C509.979,44.714 489.601,44.966 490.524,43.829L498.841,35.332C485.703,31.795 472.26,35.9 462.501,38.948C458.119,35.49 462.579,31.118 467.925,26.654C456.76,28.144 446.671,30.711 437.551,34.247C432.679,29.848 440.715,25.448 444.602,21.049C427.353,24.322 420.045,28.92 412.783,33.524C407.513,28.473 412.481,24.181 416.037,19.783C403.031,24.601 396.332,30.819 389.279,36.959C386.888,33.732 383.204,31.367 387.652,23.58C378.418,28.903 371.463,35.175 366.318,42.202C360.605,38.564 362.915,33.589 362.883,29.004C353.287,36.811 347.196,45.118 339.742,53.23C338.24,52.137 336.925,48.429 335.764,42.564C312.869,64.775 280.518,120.722 327.448,142.904C367.366,109.957 415.064,86.017 467.925,68.056Z" style="fill:rgb(89,205,144);fill-rule:nonzero;"/>
    <g transform="matrix(1.13111,0,0,1.12805,-43.1391,-68.311)">
        <path d="M365.205,521.849C365.205,558.348 332.722,588.382 293.248,588.382C253.774,588.382 221.292,558.348 221.292,521.849L221.292,521.849C221.292,485.351 253.774,455.317 293.248,455.317C332.722,455.317 365.205,485.351 365.205,521.849L365.205,521.849Z" style="fill:rgb(243,0,74);fill-rule:nonzero;"/>
    </g>
    <g transform="matrix(0.767417,-1.16131,2.17111,1.42244,-560.889,217.689)">
        <path d="M262.841,276.648C262.841,292.077 234.91,304.773 200.966,304.773C167.022,304.773 139.091,292.077 139.091,276.648C139.091,261.219 167.022,248.523 200.966,248.523C234.91,248.523 262.841,261.219 262.841,276.648Z" style="fill:rgb(243,0,74);fill-rule:nonzero;"/>
    </g>
    <g transform="matrix(-0.767417,-1.16131,-2.17111,1.42244,1134.83,213.689)">
        <path d="M262.841,276.648C262.841,292.077 234.91,304.773 200.966,304.773C167.022,304.773 139.091,292.077 139.091,276.648C139.091,261.219 167.022,248.523 200.966,248.523C234.91,248.523 262.841,261.219 262.841,276.648Z" style="fill:rgb(243,0,74);fill-rule:nonzero;"/>
    </g>
    <path d="M72.91,342.088C109.324,332.331 85.202,492.724 55.577,479.564C22.99,453.351 12.494,376.588 72.91,342.088Z" style="fill:rgb(243,0,74);fill-rule:nonzero;"/>
    <path d="M493.678,340.088C457.264,330.331 481.387,490.724 511.012,477.564C543.598,451.351 554.095,374.588 493.678,340.088Z" style="fill:rgb(243,0,74);fill-rule:nonzero;"/>
    <path d="M369.972,220.653C432.806,210.043 485.088,247.376 482.983,315.511C480.916,341.632 346.824,224.542 369.972,220.653Z" style="fill:rgb(243,0,74);fill-rule:nonzero;"/>
    <path d="M196.36,218.653C133.525,208.043 81.244,245.376 83.348,313.511C85.415,339.632 219.507,222.542 196.36,218.653Z" style="fill:rgb(243,0,74);fill-rule:nonzero;"/>
    <path d="M286.619,202.756C249.117,201.78 213.124,230.59 213.038,247.3C212.933,267.604 242.689,288.393 286.875,288.92C331.998,289.244 360.791,272.28 360.936,251.326C361.101,227.586 319.897,202.389 286.619,202.756Z" style="fill:rgb(243,0,74);fill-rule:nonzero;"/>
    <path d="M288.909,619.117C321.607,617.69 365.48,629.649 365.566,645.513C366.109,660.918 325.776,695.723 286.74,695.05C246.313,696.794 206.671,661.935 207.19,649.852C206.585,632.136 256.416,618.304 288.909,619.117Z" style="fill:rgb(243,0,74);fill-rule:nonzero;"/>
    <path d="M168.139,525.104C191.418,553.149 202.029,602.423 182.602,616.947C164.223,628.035 119.59,623.469 87.866,577.896C66.471,539.654 69.228,500.739 84.25,489.306C106.715,475.622 141.424,494.105 168.139,525.104Z" style="fill:rgb(243,0,74);fill-rule:nonzero;"/>
    <path d="M405.021,516.212C379.834,545.713 365.809,599.521 384.183,616.855C401.751,630.318 448.912,628.436 483.749,580.099C509.045,547.634 500.569,493.417 486.119,479.024C464.655,462.422 433.843,483.669 405.021,516.212Z" style="fill:rgb(243,0,74);fill-rule:nonzero;"/>
</svg>
